<?xml version="1.0" encoding="UTF-8" standalone="no"?>
<svg
   viewBox="0 0 232 68"
   version="1.1"
   id="svg2"
   sodipodi:docname="logo.svg"
   inkscape:version="1.3.2 (091e20e, 2023-11-25, custom)"
   xmlns:inkscape="http://www.inkscape.org/namespaces/inkscape"
   xmlns:sodipodi="http://sodipodi.sourceforge.net/DTD/sodipodi-0.dtd"
   xmlns="http://www.w3.org/2000/svg"
   xmlns:svg="http://www.w3.org/2000/svg">
  <defs
     id="defs2" />
  <sodipodi:namedview
     id="namedview2"
     pagecolor="#ffffff"
     bordercolor="#000000"
     borderopacity="0.25"
     inkscape:showpageshadow="2"
     inkscape:pageopacity="0.0"
     inkscape:pagecheckerboard="0"
     inkscape:deskcolor="#d1d1d1"
     inkscape:zoom="6.0474138"
     inkscape:cx="116"
     inkscape:cy="33.981468"
     inkscape:window-width="1920"
     inkscape:window-height="1009"
     inkscape:window-x="-8"
     inkscape:window-y="-8"
     inkscape:window-maximized="1"
     inkscape:current-layer="svg2" />
  <path
     d="M64.6 16.2C63 9.9 58.1 5 51.8 3.4 40 1.5 28 1.5 16.2 3.4 9.9 5 5 9.9 3.4 16.2 1.5 28 1.5 40 3.4 51.8 5 58.1 9.9 63 16.2 64.6c11.8 1.9 23.8 1.9 35.6 0C58.1 63 63 58.1 64.6 51.8c1.9-11.8 1.9-23.8 0-35.6zM33.3 36.3c-2.8 4.4-6.6 8.2-11.1 11-1.5.9-3.3.9-4.8.1s-2.4-2.3-2.5-4c0-1.7.9-3.3 2.4-4.1 2.3-1.4 4.4-3.2 6.1-5.3-1.8-2.1-3.8-3.8-6.1-5.3-2.3-1.3-3-4.2-1.7-6.4s4.3-2.9 6.5-1.6c4.5 2.8 8.2 6.5 11.1 10.9 1 1.4 1 3.3.1 4.7zM49.2 46H37.8c-2.1 0-3.8-1-3.8-3s1.7-3 3.8-3h11.4c2.1 0 3.8 1 3.8 3s-1.7 3-3.8 3z"
     fill="#206bc4"
     id="path1" />
  <path
     d="m 88.411476,55.438481 q -6.545714,0 -10.850554,-2.771609 -4.304839,-2.771609 -6.014981,-7.489241 l 9.022472,-5.248366 q 2.299846,5.484247 8.137915,5.484247 4.835573,0 4.835573,-2.771609 0,-1.828082 -2.771609,-2.94852 -1.179408,-0.471763 -5.189395,-1.592201 -5.661159,-1.651171 -8.963501,-4.599691 -3.302343,-3.00749 -3.302343,-8.314827 0,-5.720128 4.068958,-9.258353 4.127928,-3.538224 10.26085,-3.538224 5.189395,0 9.199383,2.417787 4.009986,2.417786 6.132926,7.017478 l -8.845565,5.189395 q -1.946023,-4.599691 -6.427774,-4.599691 -1.887052,0 -2.889549,0.766615 -0.943527,0.766615 -0.943527,1.946023 0,1.356319 1.41529,2.299846 1.47426,0.943526 5.661159,2.181905 3.00749,0.884556 4.835573,1.651171 1.828082,0.766615 4.009987,2.240875 2.181906,1.41529 3.243376,3.715135 1.06146,2.240876 1.06146,5.307337 0,6.073951 -4.304836,9.494234 -4.304839,3.420284 -11.381288,3.420284 z M 107.93067,13.274643 h 10.55571 v 41.279282 h -10.55571 z m 31.13634,42.163838 q -6.54572,0 -10.85056,-2.771609 -4.30484,-2.771609 -6.01498,-7.489241 l 9.02247,-5.248366 q 2.29985,5.484247 8.13792,5.484247 4.83557,0 4.83557,-2.771609 0,-1.828082 -2.77161,-2.94852 -1.17941,-0.471763 -5.18939,-1.592201 -5.66116,-1.651171 -8.96351,-4.599691 -3.30234,-3.00749 -3.30234,-8.314827 0,-5.720128 4.06896,-9.258353 4.12793,-3.538224 10.26085,-3.538224 5.1894,0 9.19938,2.417787 4.00999,2.417786 6.13292,7.017478 l -8.84556,5.189395 q -1.94602,-4.599691 -6.42777,-4.599691 -1.88705,0 -2.88955,0.766615 -0.94353,0.766615 -0.94353,1.946023 0,1.356319 1.41529,2.299846 1.47426,0.943526 5.66116,2.181905 3.00749,0.884556 4.83558,1.651171 1.82808,0.766615 4.00998,2.240875 2.18191,1.41529 3.24337,3.715135 1.06147,2.240876 1.06147,5.307337 0,6.073951 -4.30484,9.494234 -4.30484,3.420284 -11.38128,3.420284 z M 183.94347,23.476523 H 169.1419 v 6.722626 h 14.50672 V 40.401028 H 169.1419 V 54.553925 H 158.5862 V 13.274643 h 25.35727 z m 40.86642,25.770065 q -6.25086,6.191893 -15.3323,6.191893 -9.08144,0 -15.39128,-6.191893 -6.25086,-6.250862 -6.25086,-15.332304 0,-9.081442 6.25086,-15.273334 6.30984,-6.250863 15.39128,-6.250863 9.08144,0 15.3323,6.250863 6.30984,6.191892 6.30984,15.273334 0,9.081442 -6.30984,15.332304 z m -23.29331,-7.253359 q 3.18441,3.125431 7.96101,3.125431 4.7766,0 7.961,-3.125431 3.18441,-3.184402 3.18441,-8.078945 0,-4.894543 -3.18441,-8.019975 -3.1844,-3.184401 -7.961,-3.184401 -4.7766,0 -7.96101,3.184401 -3.1844,3.125432 -3.1844,8.019975 0,4.894543 3.1844,8.078945 z"
     id="text2"
     style="font-size:58.9704px;font-family:Gilroy-Black;-inkscape-font-specification:Gilroy-Black;stroke-width:4.91421"
     aria-label="SISFO" />
</svg>
